<svg xmlns="http://www.w3.org/2000/svg" xmlns:xlink="http://www.w3.org/1999/xlink" viewBox="821.35 463.45 1554.75 1475.94">
	<path fill="#4F8E4F" d="M1952.24 1687.79C1953.77 1680.82 1957.21 1672.24 1964.99 1667.71C1969.09 1665.32 1974.49 1664.53 1979.56 1665.11C1995.72 1666.97 2011.25 1680.5 2019.94 1690.32C2027.81 1699.22 2022.26 1707.75 2026.44 1716.77C2009.34 1714.7 1989.37 1716.04 1971.94 1715.75C1964.76 1714.97 1957.5 1715.28 1950.27 1715.38L1952 1714.55C1955.87 1709.73 1951.65 1694.47 1952.24 1687.79Z"/>
	<path fill="#4F8E4F" d="M1235.11 1693.95C1238.71 1688.75 1242.44 1683.73 1246.97 1678.94C1252.54 1673.06 1260.72 1665.8 1271.03 1665.1C1287.25 1663.99 1287.32 1674.87 1297.03 1679.76C1297.54 1680.02 1298.14 1680.17 1298.7 1680.38C1292.61 1687.98 1290.34 1712.07 1284.38 1715.68C1255.17 1715.62 1225.86 1715.26 1196.67 1715.98C1166.28 1716.73 1134.76 1719.13 1104.43 1716.82C1127.41 1714.14 1153.35 1715.61 1176.6 1715.92C1181.32 1705.94 1186.87 1693.15 1197.14 1685.66C1201.04 1682.81 1205.73 1680.95 1211.29 1681.11C1222.28 1681.43 1228.48 1688.31 1235.11 1693.95Z"/>
	<path fill="#FEBD64" d="M1284.38 1715.68L1289.17 1716.15C1288.74 1716.22 1288.31 1716.3 1287.88 1716.36C1266.59 1719.58 1230.91 1713.78 1213.66 1721.37C1211.47 1723.82 1210.3 1724.88 1210.9 1728.04C1213.31 1740.91 1240.15 1763.15 1254.72 1769.17C1258.41 1770.69 1261.39 1771.32 1265.49 1771.77C1268.4 1772.1 1271.49 1772.33 1274.34 1772.85L1179.78 1772.98C1162.33 1773 1143.41 1774.27 1126.23 1772.19C1125.72 1772.08 1125.23 1771.91 1124.7 1771.85C1108.28 1770.02 1097.18 1769.38 1083.98 1760.94C1072.73 1753.75 1058.25 1741.81 1057.64 1730.31C1057.45 1726.6 1059.08 1723.93 1062.59 1721.38C1070.83 1715.4 1093.3 1717.04 1104.43 1716.82C1134.76 1719.13 1166.28 1716.73 1196.67 1715.98C1225.86 1715.26 1255.17 1715.62 1284.38 1715.68Z"/>
	<path fill="#A25B4C" d="M1663.56 1366.03C1694.89 1421.44 1705.04 1475.38 1674.21 1532.72C1668.51 1543.32 1661.55 1553.83 1653.28 1563.45Q1659.99 1569.24 1666.61 1575.1C1667.7 1579.19 1666.93 1583.51 1666.55 1587.65C1664.7 1607.48 1660.81 1623.13 1676.18 1640.93C1661.65 1651.8 1646.89 1665.28 1627.55 1671.17C1611.99 1668.65 1611.37 1643.07 1596.34 1632.13C1584.83 1623.74 1571.05 1623.63 1556.08 1623.85C1543.97 1627.28 1530.5 1626.09 1518.11 1628.67L1516.45 1628.08C1513.79 1624.43 1511.97 1621.05 1510.45 1617.06C1493.17 1599.09 1484.48 1586.03 1453.14 1580.56C1435.24 1584.71 1420.78 1590.77 1405.03 1598.32C1400.21 1600.05 1395.24 1602.15 1390.09 1603.21C1407.36 1576.02 1404.92 1543.54 1431 1517.03C1458.02 1489.56 1543.22 1460.79 1585.29 1444.04C1604.22 1436.51 1625.17 1429.15 1640.11 1417.36C1651.58 1408.3 1657.73 1397.98 1662.98 1386.29C1666.87 1381.11 1664.32 1372 1663.56 1366.03Z"/>
	<path fill="#C57252" d="M1453.14 1580.56C1458.19 1572.18 1462.75 1562.57 1471.07 1555.73C1493.78 1537.02 1550.43 1512.46 1579.69 1497.87C1595.58 1489.96 1612.14 1479.87 1629.27 1473.73C1604.16 1516.49 1538.93 1540.29 1521.21 1573.33C1513.6 1587.53 1515 1602.52 1510.45 1617.06C1493.17 1599.09 1484.48 1586.03 1453.14 1580.56Z"/>
	<path fill="#94B543" d="M1622.06 1547.76C1635.32 1550.5 1644.8 1555.36 1653.28 1563.45Q1659.99 1569.24 1666.61 1575.1C1667.7 1579.19 1666.93 1583.51 1666.55 1587.65C1664.7 1607.48 1660.81 1623.13 1676.18 1640.93C1661.65 1651.8 1646.89 1665.28 1627.55 1671.17C1611.99 1668.65 1611.37 1643.07 1596.34 1632.13C1584.83 1623.74 1571.05 1623.63 1556.08 1623.85C1554.69 1621.04 1553.22 1618.18 1552.14 1615.29C1547.74 1603.44 1548.74 1589.92 1557.06 1579.14C1568.59 1564.21 1600.36 1551.82 1622.06 1547.76Z"/>
	<path fill="#6B9D3F" d="M1453.14 1580.56C1484.48 1586.03 1493.17 1599.09 1510.45 1617.06C1511.97 1621.05 1513.79 1624.43 1516.45 1628.08L1518.11 1628.67C1530.5 1626.09 1543.97 1627.28 1556.08 1623.85C1571.05 1623.63 1584.83 1623.74 1596.34 1632.13C1611.37 1643.07 1611.99 1668.65 1627.55 1671.17L1621.37 1671.85C1618.33 1680.53 1631.21 1695.1 1628.12 1706.74C1627.61 1708.65 1627.26 1710.59 1626.81 1712.5C1630.97 1714.55 1634.4 1714.09 1639.32 1714.25L1640.13 1715.08L1636.2 1715.88L1636.95 1716.85C1640.66 1719.09 1643.62 1719.94 1644.04 1723.84C1645.38 1736.34 1619.97 1757.81 1607.83 1765.4C1598.62 1771.16 1594.51 1770.71 1583.47 1772.76C1539.77 1774.52 1495.3 1773.43 1451.51 1773.45C1392.51 1773.47 1333.31 1774.11 1274.34 1772.85C1271.49 1772.33 1268.4 1772.1 1265.49 1771.77C1261.39 1771.32 1258.41 1770.69 1254.72 1769.17C1240.15 1763.15 1213.31 1740.91 1210.9 1728.04C1210.3 1724.88 1211.47 1723.82 1213.66 1721.37C1230.91 1713.78 1266.59 1719.58 1287.88 1716.36C1288.31 1716.3 1288.74 1716.22 1289.17 1716.15L1284.38 1715.68C1290.34 1712.07 1292.61 1687.98 1298.7 1680.38C1305.64 1672.67 1316.62 1665.71 1328.08 1662.03C1336.08 1659.46 1343.88 1658.53 1352.1 1661.01C1355.13 1661.45 1356.32 1661.34 1359.14 1660.41C1364.58 1654.3 1367.23 1647.65 1369.63 1640.59C1368.05 1637.44 1366.83 1633.99 1366.26 1630.65C1365.06 1623.73 1366.41 1615.11 1372.46 1609.54C1377.03 1605.33 1383.17 1603.85 1390.09 1603.21C1395.24 1602.15 1400.21 1600.05 1405.03 1598.32C1420.78 1590.77 1435.24 1584.71 1453.14 1580.56Z"/>
	<path fill="#94B543" d="M1405.03 1598.32C1415.12 1600.7 1422.62 1602.97 1427.65 1610.38C1432.3 1617.22 1431.74 1624.89 1428.51 1632.01C1423.88 1642.19 1411.72 1657.11 1398.13 1661.49C1393.86 1662.86 1389.66 1663.13 1385.21 1661.94C1379.24 1660.34 1375.26 1655.37 1373.27 1651.17C1371.95 1648.38 1371.31 1645.69 1370.72 1642.78C1370.42 1641.28 1370.68 1641.89 1369.63 1640.59C1368.05 1637.44 1366.83 1633.99 1366.26 1630.65C1365.06 1623.73 1366.41 1615.11 1372.46 1609.54C1377.03 1605.33 1383.17 1603.85 1390.09 1603.21C1395.24 1602.15 1400.21 1600.05 1405.03 1598.32Z"/>
	<path fill="#4F8E4F" d="M1556.08 1623.85C1571.05 1623.63 1584.83 1623.74 1596.34 1632.13C1611.37 1643.07 1611.99 1668.65 1627.55 1671.17L1621.37 1671.85C1618.33 1680.53 1631.21 1695.1 1628.12 1706.74C1627.61 1708.65 1627.26 1710.59 1626.81 1712.5C1630.97 1714.55 1634.4 1714.09 1639.32 1714.25L1640.13 1715.08L1636.2 1715.88Q1589.89 1716.31 1543.58 1715.98L1543.16 1714.61L1542.31 1714.18C1512.96 1716.34 1462.22 1715.43 1432.06 1713.89C1433.18 1708.61 1433.59 1703.25 1434.77 1697.98C1436.28 1691.15 1440.66 1680.73 1449.27 1677.06C1452.91 1675.5 1456.65 1674.87 1460.75 1675.84C1475.48 1679.33 1485.46 1697.05 1491.53 1706.74C1514.82 1674.55 1520.64 1665.92 1518.11 1628.67C1530.5 1626.09 1543.97 1627.28 1556.08 1623.85Z"/>
	<path fill="#2C6C58" d="M1552.97 1675.75C1565.63 1674.49 1581.97 1671.39 1593.3 1677.46C1600.09 1681.11 1602.44 1687.19 1603.3 1693.15C1604.3 1700.16 1602.67 1707.76 1601.71 1714.74C1582.19 1714.85 1562.67 1715.07 1543.16 1714.61L1542.31 1714.18C1538.71 1704.33 1535.51 1695.16 1542.55 1685.58C1545.17 1682.01 1549.15 1678.62 1552.97 1675.75Z"/>
	<path fill="#FED37A" d="M1298.7 1680.38C1305.64 1672.67 1316.62 1665.71 1328.08 1662.03C1336.08 1659.46 1343.88 1658.53 1352.1 1661.01C1353.5 1661.92 1357.06 1663.69 1357.88 1664.78C1361.73 1669.92 1362.36 1685.62 1364.67 1692.56C1367.34 1700.55 1371.67 1707.34 1376.58 1714.65C1386.74 1714.82 1398.34 1714.23 1408.26 1715.66Q1475.92 1716.3 1543.58 1715.98Q1589.89 1716.31 1636.2 1715.88L1636.95 1716.85C1640.66 1719.09 1643.62 1719.94 1644.04 1723.84C1645.38 1736.34 1619.97 1757.81 1607.83 1765.4C1598.62 1771.16 1594.51 1770.71 1583.47 1772.76C1539.77 1774.52 1495.3 1773.43 1451.51 1773.45C1392.51 1773.47 1333.31 1774.11 1274.34 1772.85C1271.49 1772.33 1268.4 1772.1 1265.49 1771.77C1261.39 1771.32 1258.41 1770.69 1254.72 1769.17C1240.15 1763.15 1213.31 1740.91 1210.9 1728.04C1210.3 1724.88 1211.47 1723.82 1213.66 1721.37C1230.91 1713.78 1266.59 1719.58 1287.88 1716.36C1288.31 1716.3 1288.74 1716.22 1289.17 1716.15L1284.38 1715.68C1290.34 1712.07 1292.61 1687.98 1298.7 1680.38Z"/>
	<path fill="#94B543" d="M1298.7 1680.38C1305.64 1672.67 1316.62 1665.71 1328.08 1662.03C1336.08 1659.46 1343.88 1658.53 1352.1 1661.01C1353.5 1661.92 1357.06 1663.69 1357.88 1664.78C1361.73 1669.92 1362.36 1685.62 1364.67 1692.56C1367.34 1700.55 1371.67 1707.34 1376.58 1714.65C1386.74 1714.82 1398.34 1714.23 1408.26 1715.66C1369.82 1718.53 1328.2 1714.87 1289.17 1716.15L1284.38 1715.68C1290.34 1712.07 1292.61 1687.98 1298.7 1680.38Z"/>
	<defs>
		<linearGradient id="gradient_0" gradientUnits="userSpaceOnUse" x1="2193.6196" y1="1256.9891" x2="2009.2336" y2="1025.5979">
			<stop offset="0" stop-color="#377554"/>
			<stop offset="1" stop-color="#27665B"/>
		</linearGradient>
	</defs>
	<path fill="url(#gradient_0)" d="M2152.46 943.299C2187.05 938.983 2217.47 949.646 2245.16 964.024C2245.78 963.995 2246.42 964.014 2247.03 963.937C2257.47 962.633 2271.27 952.694 2287.12 960.724C2292.26 963.33 2294.39 967.696 2295.08 972.156C2296.88 983.889 2290.14 991.499 2287.08 1002.18C2302.75 1026.09 2331.65 1044.93 2342.69 1070.44C2353.13 1072.15 2359.43 1073.59 2365.43 1080.6C2374.44 1091.11 2378.46 1108.69 2374.69 1120.84C2371.94 1129.66 2366.4 1132.98 2357.49 1138.49C2364.93 1152.78 2372.61 1166.04 2363.57 1181.15C2357.84 1190.72 2346.75 1196.66 2333.74 1199.86C2318.14 1203.69 2303.16 1203.17 2288.47 1197.56C2280.2 1194.41 2273.54 1189.73 2266.8 1185.06C2247.09 1193.72 2227.24 1201 2204.43 1203.61C2189.06 1205.37 2172.61 1204.51 2157.07 1204.53L2076.41 1204.69L1954.34 1204.93C1923.92 1205 1883.35 1208.04 1854.11 1202.1C1836.85 1198.6 1824.52 1185.3 1816.11 1174.11C1801.7 1154.92 1787.33 1128.94 1781.17 1107.31C1781.76 1107.6 1782.36 1107.87 1782.94 1108.17C1788.01 1110.78 1790.19 1116.55 1795.41 1118.67C1814.03 1126.27 1839.12 1119.27 1859.12 1122.38C1871.48 1130.71 1885.7 1142.54 1903.67 1142.11C1912.18 1141.91 1920.47 1138.21 1926.2 1133.65C1928.21 1132.05 1929.93 1130.21 1931.62 1128.42C1946.42 1115.35 1944.06 1091.12 1955.95 1077.48C1980.66 1072.74 2007.64 1071.03 2032.95 1068.3C2035.06 1064.86 2038.34 1061.03 2042.37 1058.65C2048.73 1054.9 2055.04 1055.62 2062.46 1056.54L2065.26 1056.36C2069.48 1054.14 2072.91 1051.17 2075.85 1048C2092.64 1030 2092.15 1005.14 2087.67 984.558C2095.52 989.475 2102.28 993.971 2113.16 993.081C2119.29 992.579 2124.52 990.486 2128.31 986.818C2141.61 973.95 2131.22 960.291 2129.67 946.57C2129.6 945.937 2129.55 945.304 2129.49 944.671C2137.45 946.225 2144.53 943.489 2152.46 943.299Z"/>
	<path fill="#4F8E4F" d="M2245.16 964.024C2245.78 963.995 2246.42 964.014 2247.03 963.937C2257.47 962.633 2271.27 952.694 2287.12 960.724C2292.26 963.33 2294.39 967.696 2295.08 972.156C2296.88 983.889 2290.14 991.499 2287.08 1002.18C2287.13 1004.57 2287.06 1006.99 2286.21 1009.31C2284.86 1013.04 2281.29 1017.47 2276.51 1019.2C2272.05 1020.82 2266.98 1020.29 2262.61 1018.82C2253.69 1015.79 2248.18 1009.04 2244.79 1002.45C2237.84 988.953 2237.75 977.211 2245.16 964.024Z"/>
	<path fill="#1D494E" d="M2229.43 1091.4C2229.87 1091.4 2230.31 1091.39 2230.76 1091.4C2244.52 1091.8 2262.26 1095.08 2271.81 1102.87C2282.59 1111.66 2282.11 1122.89 2281.3 1133.98L2279.76 1135.21C2262.53 1148.77 2257.6 1166.99 2232.19 1173.91C2225.41 1172.3 2219.46 1170.09 2213.52 1167.15C2198.85 1159.89 2183.58 1149.85 2180.34 1136.23C2178.1 1126.85 2181.62 1116.87 2188.89 1109.13C2198.76 1098.62 2212.94 1093.46 2229.43 1091.4Z"/>
	<path fill="#4F8E4F" d="M2129.49 944.671C2137.45 946.225 2144.53 943.489 2152.46 943.299C2159.74 943.725 2166.87 944.038 2174.18 943.941C2198.93 957.259 2213.52 975.254 2218.35 997.822C2223.01 1019.58 2217.98 1044.67 2200.74 1062.89C2180.87 1083.88 2144.97 1099.81 2115.96 1113.01C2109.5 1127.97 2102.33 1138.75 2082.83 1146.22C2060.33 1154.84 2018.48 1165.74 1993.87 1159.05C1970.56 1152.72 1951.39 1133.92 1931.62 1128.42C1946.42 1115.35 1944.06 1091.12 1955.95 1077.48C1980.66 1072.74 2007.64 1071.03 2032.95 1068.3C2035.06 1064.86 2038.34 1061.03 2042.37 1058.65C2048.73 1054.9 2055.04 1055.62 2062.46 1056.54L2065.26 1056.36C2069.48 1054.14 2072.91 1051.17 2075.85 1048C2092.64 1030 2092.15 1005.14 2087.67 984.558C2095.52 989.475 2102.28 993.971 2113.16 993.081C2119.29 992.579 2124.52 990.486 2128.31 986.818C2141.61 973.95 2131.22 960.291 2129.67 946.57C2129.6 945.937 2129.55 945.304 2129.49 944.671Z"/>
	<path fill="#2C6C58" d="M2032.95 1068.3C2035.06 1064.86 2038.34 1061.03 2042.37 1058.65C2048.73 1054.9 2055.04 1055.62 2062.46 1056.54C2075.02 1063.99 2085.17 1075.45 2086.92 1087.63C2088.32 1097.44 2084.04 1108.61 2075.65 1116.24C2070.18 1121.21 2062.64 1124.53 2053.99 1124.99C2047.37 1125.34 2040.77 1123.98 2035.69 1120.71C2028.48 1116.08 2025.86 1108.46 2025.79 1101.59C2025.69 1090.81 2030.29 1078.91 2032.95 1068.3Z"/>
	<path fill="#94B543" d="M1973.39 788.017C1978.88 783.706 1984.98 778.082 1993.85 778.643C1997.92 778.9 2002.11 780.993 2004.54 783.43C2006.13 785.034 2007.23 786.938 2008.42 788.72L2009.45 790.233C2009.66 790.537 2009.85 790.845 2010.05 791.151C2013.78 792.209 2017.17 793.114 2020.58 794.691C2036.37 800.485 2045.77 810.54 2051.31 822.777C2055.19 831.33 2056.13 841.341 2060.59 849.517C2072.37 860.786 2089.95 906.336 2091.48 921.397C2102.13 921.157 2109.25 921.93 2117.23 927.626C2122.88 931.655 2127.49 939.135 2129.49 944.671C2129.55 945.304 2129.6 945.937 2129.67 946.57C2131.22 960.291 2141.61 973.95 2128.31 986.818C2124.52 990.486 2119.29 992.579 2113.16 993.081C2102.28 993.971 2095.52 989.475 2087.67 984.558C2092.15 1005.14 2092.64 1030 2075.85 1048C2072.91 1051.17 2069.48 1054.14 2065.26 1056.36L2062.46 1056.54C2055.04 1055.62 2048.73 1054.9 2042.37 1058.65C2038.34 1061.03 2035.06 1064.86 2032.95 1068.3C2007.64 1071.03 1980.66 1072.74 1955.95 1077.48C1944.06 1091.12 1946.42 1115.35 1931.62 1128.42C1929.93 1130.21 1928.21 1132.05 1926.2 1133.65C1920.47 1138.21 1912.18 1141.91 1903.67 1142.11C1885.7 1142.54 1871.48 1130.71 1859.12 1122.38C1839.12 1119.27 1814.03 1126.27 1795.41 1118.67C1790.19 1116.55 1788.01 1110.78 1782.94 1108.17C1782.36 1107.87 1781.76 1107.6 1781.17 1107.31C1775.13 1082.68 1784.4 1064.66 1796.97 1042.37C1804.54 1036.32 1816.24 1026.07 1827.06 1024.13C1830.26 1023.56 1829.17 1024 1832.09 1022.62C1832.69 1022.34 1833.26 1022.01 1833.84 1021.7C1815.62 998.565 1788.44 954.116 1754.77 944.505C1736.68 939.341 1719.93 942.669 1702.94 948.228C1700.04 937.887 1698.32 927.53 1699.3 916.947C1701.76 890.461 1719.4 871.777 1745.47 854.928L1747.85 853.255C1773.69 854.372 1803.44 855.358 1828.58 850.276C1864.56 843.003 1871.91 817.055 1887.85 795.975L1893.32 794.947C1900.55 796.356 1907.41 797.807 1914.31 800.004C1916.52 797.046 1919.96 793.815 1923.4 791.62C1936.41 783.331 1957.77 786.953 1973.39 788.017Z"/>
	<path fill="#C3D052" d="M1924.27 965.599C1926.89 965.402 1930.27 965.127 1932.85 965.467C1938.53 966.217 1942.54 969.663 1945.42 973.169C1953.26 982.717 1956.32 998.087 1952.54 1008.88C1950.27 1015.37 1944.9 1018.72 1937.33 1021.84C1928.49 1020.21 1921.56 1017.62 1913.65 1014.37Q1912.59 1013.23 1911.59 1012.06C1904.63 1003.86 1902.7 992.572 1905.9 983.18C1908.75 974.832 1914.47 969.848 1924.27 965.599Z"/>
	<path fill="#C3D052" d="M1994.83 928.329C1996.04 921.489 1998.11 913.632 2005.68 909.017C2009.64 906.602 2014.94 905.745 2019.95 906.172C2037.46 907.666 2061.87 923.669 2071.99 934.133Q2075.09 937.272 2077.58 940.698C2077.72 940.996 2077.87 941.293 2078.01 941.593L2078.69 943.093C2082.15 950.573 2083.77 957.772 2084.58 965.653C2085.59 975.552 2085.89 988.057 2076.28 995.8C2071.92 999.318 2066.08 1001.07 2059.7 1001.02C2043.81 1000.88 2019.4 990.139 2008.54 981.715C1990 967.321 1994.8 946.648 1994.83 928.329Z"/>
	<path fill="#6B9D3F" d="M1837.25 998.668C1837.39 1008.54 1836.97 1018.51 1840 1028.17C1840.19 1028.77 1840.35 1029.38 1840.54 1029.98C1842.81 1036.94 1847.81 1043.61 1851.97 1050.03C1852.48 1049.82 1853.01 1049.65 1853.49 1049.41C1867.36 1042.41 1873.44 1024.65 1894.47 1026.44C1909.99 1027.76 1931.26 1039.8 1940.38 1048.96C1947.93 1056.53 1951.47 1074.19 1955.95 1077.48C1944.06 1091.12 1946.42 1115.35 1931.62 1128.42C1929.93 1130.21 1928.21 1132.05 1926.2 1133.65C1920.47 1138.21 1912.18 1141.91 1903.67 1142.11C1885.7 1142.54 1871.48 1130.71 1859.12 1122.38C1839.12 1119.27 1814.03 1126.27 1795.41 1118.67C1790.19 1116.55 1788.01 1110.78 1782.94 1108.17C1782.36 1107.87 1781.76 1107.6 1781.17 1107.31C1775.13 1082.68 1784.4 1064.66 1796.97 1042.37C1804.54 1036.32 1816.24 1026.07 1827.06 1024.13C1830.26 1023.56 1829.17 1024 1832.09 1022.62C1832.69 1022.34 1833.26 1022.01 1833.84 1021.7L1834.74 1021.53C1838.67 1016.06 1835.69 1005.42 1837.25 998.668Z"/>
	<path fill="#4F8E4F" d="M1837.25 998.668C1837.39 1008.54 1836.97 1018.51 1840 1028.17C1840.19 1028.77 1840.35 1029.38 1840.54 1029.98C1842.81 1036.94 1847.81 1043.61 1851.97 1050.03C1841.64 1066.1 1830.66 1082.11 1838.99 1100.43Q1839.74 1102.02 1840.62 1103.57Q1841.5 1105.12 1842.52 1106.62Q1843.54 1108.12 1844.69 1109.57Q1845.84 1111.02 1847.11 1112.41Q1848.38 1113.8 1849.78 1115.12Q1851.17 1116.44 1852.67 1117.69Q1854.18 1118.94 1855.79 1120.12Q1857.41 1121.29 1859.12 1122.38C1839.12 1119.27 1814.03 1126.27 1795.41 1118.67C1790.19 1116.55 1788.01 1110.78 1782.94 1108.17C1782.36 1107.87 1781.76 1107.6 1781.17 1107.31C1775.13 1082.68 1784.4 1064.66 1796.97 1042.37C1804.54 1036.32 1816.24 1026.07 1827.06 1024.13C1830.26 1023.56 1829.17 1024 1832.09 1022.62C1832.69 1022.34 1833.26 1022.01 1833.84 1021.7L1834.74 1021.53C1838.67 1016.06 1835.69 1005.42 1837.25 998.668Z"/>
	<path fill="#1D494E" d="M1973.39 788.017C1978.88 783.706 1984.98 778.082 1993.85 778.643C1997.92 778.9 2002.11 780.993 2004.54 783.43C2006.13 785.034 2007.23 786.938 2008.42 788.72L2009.45 790.233C2009.66 790.537 2009.85 790.845 2010.05 791.151C2013.78 792.209 2017.17 793.114 2020.58 794.691C2036.37 800.485 2045.77 810.54 2051.31 822.777C2055.19 831.33 2056.13 841.341 2060.59 849.517C2072.37 860.786 2089.95 906.336 2091.48 921.397C2086.52 927.157 2082.32 932.516 2078.69 938.828L2077.58 940.698Q2075.09 937.272 2071.99 934.133C2061.87 923.669 2037.46 907.666 2019.95 906.172C2014.94 905.745 2009.64 906.602 2005.68 909.017C1998.11 913.632 1996.04 921.489 1994.83 928.329C1994.22 928.501 1993.61 928.681 1992.99 928.844C1985.76 930.751 1975.87 930.967 1968.18 931.612C1915.93 935.993 1878.11 929.291 1849.77 970.01C1844.4 977.727 1840.85 985.211 1838.57 993.743L1837.25 998.668C1835.69 1005.42 1838.67 1016.06 1834.74 1021.53L1833.84 1021.7C1815.62 998.565 1788.44 954.116 1754.77 944.505C1736.68 939.341 1719.93 942.669 1702.94 948.228C1700.04 937.887 1698.32 927.53 1699.3 916.947C1701.76 890.461 1719.4 871.777 1745.47 854.928L1747.85 853.255C1773.69 854.372 1803.44 855.358 1828.58 850.276C1864.56 843.003 1871.91 817.055 1887.85 795.975L1893.32 794.947C1900.55 796.356 1907.41 797.807 1914.31 800.004C1916.52 797.046 1919.96 793.815 1923.4 791.62C1936.41 783.331 1957.77 786.953 1973.39 788.017Z"/>
	<path fill="#2C6C58" d="M1787.79 885.909C1800.36 886.132 1812.73 886.816 1821.77 894.166C1826.66 898.14 1828.92 903.715 1828.37 909.065C1827.28 919.813 1818.39 927.358 1808.19 934.232C1801.39 936.108 1796.8 935.965 1790.11 933.868C1781.78 931.263 1776.1 925.9 1772.8 919.729C1768.88 912.374 1768.48 903.511 1772.74 896.184C1776.01 890.556 1780.42 888.222 1787.79 885.909Z"/>
	<path fill="#2C6C58" d="M1973.39 788.017C1978.88 783.706 1984.98 778.082 1993.85 778.643C1997.92 778.9 2002.11 780.993 2004.54 783.43C2006.13 785.034 2007.23 786.938 2008.42 788.72L2009.45 790.233C2009.66 790.537 2009.85 790.845 2010.05 791.151C2013.78 792.209 2017.17 793.114 2020.58 794.691C2036.37 800.485 2045.77 810.54 2051.31 822.777C2055.19 831.33 2056.13 841.341 2060.59 849.517C2060.99 856.025 2058.34 862.207 2053.53 867.634C2040.56 882.287 2004.1 893.292 1981.81 896.85C1966.68 899.265 1955.61 895.299 1943.09 889.4C1936.2 898.834 1930.02 906.593 1918.37 913.251C1909.68 912.154 1900.56 910.711 1892.15 908.72C1883.18 906.593 1874.52 902.718 1870.36 896.126C1864.26 886.457 1868.75 874.565 1873.26 865.038C1883.34 858.297 1893.11 853.445 1905.59 849.525C1904.04 845.99 1902.38 842.372 1901.5 838.701C1898.34 825.473 1904.35 810.937 1914.31 800.004C1916.52 797.046 1919.96 793.815 1923.4 791.62C1936.41 783.331 1957.77 786.953 1973.39 788.017Z"/>
	<path fill="#4F8E4F" d="M1973.39 788.017C1978.88 783.706 1984.98 778.082 1993.85 778.643C1997.92 778.9 2002.11 780.993 2004.54 783.43C2006.13 785.034 2007.23 786.938 2008.42 788.72L2009.45 790.233C2009.66 790.537 2009.85 790.845 2010.05 791.151C2013.78 792.209 2017.17 793.114 2020.58 794.691C2022.17 799.302 2024.84 803.754 2027.14 808.193C2027.07 808.516 2026.99 808.84 2026.91 809.162L2026.49 810.773C2025 816.701 2023.87 820.94 2018.64 825.652C2013.15 830.596 2005.93 835.543 1996.88 835.88C1990.57 836.116 1983.94 833.661 1979.68 830.248C1966.83 819.93 1977.24 802.41 1974.37 790.255C1974.19 789.482 1973.71 788.763 1973.39 788.017Z"/>
	<path fill="#4F8E4F" d="M1715.03 475.621C1717.58 471.39 1721.71 465.184 1728.07 463.779C1732.2 462.868 1736.31 463.944 1739.78 465.644C1750.28 470.801 1755.11 478.543 1760.57 486.635C1781.32 488.354 1801.02 495.936 1818.29 504.456C1832.22 510.619 1843.76 517.68 1855.73 525.797C1860.12 528.768 1864.71 532.951 1869.48 535.388C1875.3 530.711 1880.81 526.283 1889.82 525.818C1897.47 525.424 1904.43 528.189 1910 531.923C1923.39 540.899 1933.23 557.052 1933.18 570.549C1933.16 573.741 1932.25 576.918 1931.37 580.029C1931.62 580.486 1931.85 580.95 1932.12 581.402C1933.29 583.363 1935.1 584.656 1937 586.223C1959.28 604.593 1969.91 636.64 1967.9 660.919C1965.87 685.392 1953.01 710.62 1927.97 727.059C1916.87 734.35 1899.74 741.442 1884.63 741.457C1873 743.058 1860.51 742.798 1848.7 742.918L1726.94 742.845C1723.69 750.685 1720.13 759.71 1709.6 763.735C1698.47 767.985 1686.28 764.6 1675.18 762.196C1674.39 761.96 1673.59 761.739 1672.81 761.489C1662.62 758.233 1657.79 750.502 1653.94 743.257C1653.17 743.141 1652.39 743.016 1651.62 742.909C1642.08 741.597 1630.45 742.62 1620.73 742.682L1566.1 742.889C1523.64 742.913 1498.39 740.314 1472.12 712.907C1467.3 707.877 1463.36 702.42 1458.96 697.187C1438.88 715.95 1418.25 733.001 1422.35 759.039C1423.18 764.322 1426.16 768.614 1427.61 773.617C1421.48 778.176 1417.65 782.445 1415.18 788.668C1414.74 788.809 1414.32 788.995 1413.87 789.092C1404.49 791.088 1331.67 779.978 1318.39 776.961C1308.27 774.662 1299.2 771.547 1289.95 767.701C1301.16 762.96 1305.43 751.479 1310.49 743.121L1314.06 742.288C1307.31 737.206 1292.99 731.808 1284.72 726.083C1248.53 701.036 1273.83 670.29 1272.1 640.223L1271.97 638.148C1271.9 624.827 1270.3 611.158 1268.53 597.911C1268.77 587.04 1273.6 577.548 1280.28 568.097C1289.6 563.452 1299.11 561.563 1310.07 560.402C1329.34 558.362 1353.22 560.247 1369.14 569.156C1390.41 567.51 1411.94 569.296 1433.22 570.409L1435.83 569.46C1439.57 564.418 1444.29 558.267 1451.68 556.032C1461.28 555.529 1470.17 559.998 1478.01 563.696C1482.39 559.152 1486.12 554.162 1490.29 549.495C1511.23 526.101 1536.6 510.04 1574.03 504.529C1584.24 499.925 1592.67 486.906 1601.1 479.949C1606.77 475.268 1614.29 470.557 1623.2 470.61C1639.87 470.71 1655.35 482.476 1666.49 490.599C1678.02 487.584 1689.39 486.696 1701.06 484.382C1709.39 482.732 1710.86 480.935 1715.03 475.621Z"/>
	<path fill="#3E7E55" d="M1433.22 570.409L1435.83 569.46C1439.57 564.418 1444.29 558.267 1451.68 556.032C1461.28 555.529 1470.17 559.998 1478.01 563.696C1470.53 575.54 1465.17 589.443 1462.36 602.394C1462.03 602.801 1461.55 603.158 1461.39 603.615C1455.42 620.717 1450.84 637.893 1446.83 655.439C1430.11 642.546 1417.09 616.333 1417.54 598.168C1417.8 587.578 1422.78 577.691 1433.22 570.409Z"/>
	<path fill="#6B9D3F" d="M1869.48 535.388C1875.3 530.711 1880.81 526.283 1889.82 525.818C1897.47 525.424 1904.43 528.189 1910 531.923C1923.39 540.899 1933.23 557.052 1933.18 570.549C1933.16 573.741 1932.25 576.918 1931.37 580.029L1929.98 580.512C1929.93 580.945 1929.91 581.381 1929.81 581.81C1929.17 584.761 1927.54 585.804 1924.43 587.566C1917.32 591.587 1906.35 597.296 1896.94 595.341C1890.13 593.926 1885.41 588.51 1882.47 584.068C1874.68 572.318 1864.09 547.892 1869.48 535.388Z"/>
	<path fill="#6B9D3F" d="M1653.94 743.257C1650.18 727.034 1656.95 704.78 1669.39 691.286C1677.12 682.897 1690.15 673.12 1704.22 671.453C1709.61 670.816 1714.69 671.575 1719.09 674.033C1727.28 678.599 1731.59 688.497 1732.5 695.801C1734.33 710.628 1729.53 728.023 1726.94 742.845C1723.69 750.685 1720.13 759.71 1709.6 763.735C1698.47 767.985 1686.28 764.6 1675.18 762.196C1674.39 761.96 1673.59 761.739 1672.81 761.489C1662.62 758.233 1657.79 750.502 1653.94 743.257Z"/>
	<path fill="#94B543" d="M1276.35 657.314C1282.37 662.813 1288.67 668.787 1298.36 670.454C1321.34 674.403 1364.31 647.877 1384.1 638.189C1384.18 638.658 1384.22 639.13 1384.33 639.594C1388.45 656.794 1397.99 662.843 1391.15 683.244C1389.98 686.734 1388.85 691.488 1385.98 694.421C1385.69 694.717 1385.32 694.964 1384.98 695.236C1389 709.439 1399.55 728.66 1388.58 742.344C1386.22 745.285 1382.86 747.25 1378.4 748.08C1368.22 749.976 1350.58 746.404 1341.54 742.715C1333.46 745.687 1322.44 743.872 1314.06 742.288C1307.31 737.206 1292.99 731.808 1284.72 726.083C1248.53 701.036 1273.83 670.29 1272.1 640.223L1271.97 638.148Q1274.24 647.721 1276.35 657.314Z"/>
	<path fill="#2C6C58" d="M1341.54 742.715C1340.88 742.094 1340.2 741.482 1339.55 740.851C1333.15 734.602 1332.81 727.076 1334.6 719.597C1337.14 708.947 1345.65 691.977 1358.12 685.936C1362.35 683.891 1366.8 683.36 1371.66 684.507C1378.01 686.006 1381.96 691.196 1384.98 695.236C1389 709.439 1399.55 728.66 1388.58 742.344C1386.22 745.285 1382.86 747.25 1378.4 748.08C1368.22 749.976 1350.58 746.404 1341.54 742.715Z"/>
	<path fill="#C3D052" d="M1280.28 568.097C1289.6 563.452 1299.11 561.563 1310.07 560.402C1329.34 558.362 1353.22 560.247 1369.14 569.156C1384.63 578.992 1399.45 589.506 1401.68 605.59Q1401.82 606.543 1401.89 607.5Q1401.96 608.457 1401.97 609.415Q1401.97 610.374 1401.91 611.331Q1401.85 612.289 1401.73 613.243Q1401.6 614.197 1401.41 615.145Q1401.22 616.093 1400.97 617.032Q1400.72 617.971 1400.4 618.9Q1400.08 619.828 1399.7 620.743Q1399.32 621.658 1398.88 622.557Q1398.43 623.457 1397.93 624.338Q1397.43 625.219 1396.87 626.079Q1396.3 626.94 1395.68 627.777Q1395.06 628.615 1394.38 629.428Q1393.71 630.241 1392.98 631.027Q1392.24 631.813 1391.46 632.57Q1390.67 633.326 1389.84 634.052C1388.11 635.557 1386.11 636.893 1384.1 638.189C1364.31 647.877 1321.34 674.403 1298.36 670.454C1288.67 668.787 1282.37 662.813 1276.35 657.314Q1274.24 647.721 1271.97 638.148C1271.9 624.827 1270.3 611.158 1268.53 597.911C1268.77 587.04 1273.6 577.548 1280.28 568.097Z"/>
	<path fill="#2C6C58" d="M1817.37 581.247C1827.58 579.079 1837.94 580.076 1847.32 583.799C1868.04 592.025 1876.3 609.741 1882.4 625.651C1887.37 638.595 1888.48 653.873 1879.78 666.085C1874.58 673.381 1866.1 678.423 1855.49 680.65C1840.04 683.893 1784.03 680.68 1770.26 674.778C1759.32 670.087 1753.08 660.054 1750.18 651.244C1748.16 645.098 1746.89 638.181 1747.98 631.864C1752.99 618.874 1756.79 604.927 1769.09 594.477C1782.17 583.353 1798.91 582.195 1817.37 581.247Z"/>
	<path fill="#94B543" d="M1715.03 475.621C1717.58 471.39 1721.71 465.184 1728.07 463.779C1732.2 462.868 1736.31 463.944 1739.78 465.644C1750.28 470.801 1755.11 478.543 1760.57 486.635C1781.32 488.354 1801.02 495.936 1818.29 504.456C1835.39 530.771 1831.75 550.215 1819.94 576.881C1819.26 578.417 1818.39 579.825 1817.37 581.247C1798.91 582.195 1782.17 583.353 1769.09 594.477C1756.79 604.927 1752.99 618.874 1747.98 631.864C1729.26 637.374 1708.61 641.104 1689.34 645.492C1662.22 651.668 1633.84 659.687 1605.67 662.463C1570.29 665.949 1540.56 657.401 1509.57 645.453C1500.2 641.84 1490.08 638.204 1481.84 633.217C1468.03 624.859 1464.4 614.979 1462.36 602.394C1465.17 589.443 1470.53 575.54 1478.01 563.696C1482.39 559.152 1486.12 554.162 1490.29 549.495C1511.23 526.101 1536.6 510.04 1574.03 504.529C1584.24 499.925 1592.67 486.906 1601.1 479.949C1606.77 475.268 1614.29 470.557 1623.2 470.61C1639.87 470.71 1655.35 482.476 1666.49 490.599C1678.02 487.584 1689.39 486.696 1701.06 484.382C1709.39 482.732 1710.86 480.935 1715.03 475.621Z"/>
	<path fill="#C3D052" d="M1715.03 475.621C1717.58 471.39 1721.71 465.184 1728.07 463.779C1732.2 462.868 1736.31 463.944 1739.78 465.644C1750.28 470.801 1755.11 478.543 1760.57 486.635C1761.12 486.981 1761.69 487.303 1762.2 487.672C1765.31 489.896 1765.62 491.905 1765.57 494.992C1765.46 502.028 1760.65 507.713 1753.92 512.412C1748.34 516.301 1740.04 520.343 1732.04 519.652C1727.73 519.279 1724.04 517.411 1721.35 514.929C1710.22 504.634 1713.21 487.851 1715.03 475.621Z"/>
	<path fill="#C3D052" d="M1574.03 504.529C1584.24 499.925 1592.67 486.906 1601.1 479.949C1606.77 475.268 1614.29 470.557 1623.2 470.61C1639.87 470.71 1655.35 482.476 1666.49 490.599C1667.11 490.746 1667.73 490.921 1668.36 491.041C1670.89 491.52 1672.05 491.446 1674.51 491.371C1680.96 491.174 1684.97 494.294 1689.45 497.423C1703.19 507.033 1709.44 521.718 1709.92 535.52C1710.53 553.051 1701.18 574.279 1685.02 587.098C1664.76 603.173 1626.49 600.379 1599.06 601.335C1599.77 608.357 1600.32 616.073 1593.58 621.68C1588.51 625.905 1581.93 627.741 1574.44 627.889C1564.4 628.086 1553.01 625.356 1545.82 619.946C1540.07 615.623 1537.43 609.844 1537.68 603.805C1538.14 592.993 1548.04 580.031 1557.68 572.221C1549.77 553.349 1547.86 535.855 1560.48 517.651C1564.09 512.453 1568.12 508.348 1574.03 504.529Z"/>
	<path fill="#C57252" d="M1702.94 948.228C1719.93 942.669 1736.68 939.341 1754.77 944.505C1788.44 954.116 1815.62 998.565 1833.84 1021.7C1833.26 1022.01 1832.69 1022.34 1832.09 1022.62C1829.17 1024 1830.26 1023.56 1827.06 1024.13C1816.24 1026.07 1804.54 1036.32 1796.97 1042.37C1781.24 1029.96 1753.35 1010.91 1729.62 1009.91C1719.91 1009.5 1709.42 1011.47 1700.15 1013.48C1671.36 1019.73 1643.66 1029.26 1615.51 1036.98C1587.18 1044.75 1556.52 1051.02 1529.41 1060.85C1521.14 1066.85 1515.09 1073.44 1509.62 1080.98C1499.96 1094.31 1448.53 1184.45 1447.54 1195.58C1447.14 1200.07 1449.93 1206.62 1451.5 1210.96C1460.15 1215.39 1466.73 1218.54 1477.33 1219.75C1490.27 1212.71 1506.84 1208.07 1521.12 1202.62C1554.66 1189.84 1589.58 1173.25 1625.74 1165.44Q1628.22 1164.9 1630.74 1164.47Q1633.26 1164.03 1635.81 1163.7Q1638.35 1163.37 1640.92 1163.14Q1643.49 1162.91 1646.07 1162.78Q1648.64 1162.65 1651.23 1162.63Q1653.81 1162.61 1656.4 1162.69Q1658.98 1162.77 1661.55 1162.95Q1664.12 1163.13 1666.68 1163.42C1702.43 1167.56 1728.8 1185.75 1749.01 1206.96C1772.16 1231.26 1792.98 1257.26 1814.57 1282.38C1832.94 1303.77 1861.82 1332.37 1873.32 1355.76Q1874.45 1358.04 1875.48 1360.35Q1876.5 1362.66 1877.43 1364.99Q1878.36 1367.32 1879.19 1369.67Q1880.02 1372.02 1880.74 1374.4Q1881.47 1376.77 1882.09 1379.15Q1882.72 1381.54 1883.24 1383.94Q1883.76 1386.35 1884.18 1388.76Q1884.59 1391.17 1884.91 1393.59Q1885.22 1396.01 1885.43 1398.44Q1885.64 1400.87 1885.74 1403.3Q1885.85 1405.73 1885.85 1408.17Q1885.85 1410.6 1885.74 1413.03Q1885.64 1415.46 1885.43 1417.89Q1885.22 1420.32 1884.9 1422.74Q1884.59 1425.16 1884.17 1427.58Q1883.75 1429.99 1883.23 1432.39C1877.84 1456.97 1862.16 1478.22 1850.18 1501.09L1819.12 1561.16C1813.82 1571.16 1804.4 1583.26 1802.09 1593.76C1795.62 1592.06 1789.96 1588.28 1783.25 1586.53C1763.71 1581.42 1745.58 1586.55 1728.1 1593.25C1719.11 1578.67 1713.85 1565.31 1692.31 1559C1679.98 1562.65 1673.78 1566.72 1666.61 1575.1Q1659.99 1569.24 1653.28 1563.45C1661.55 1553.83 1668.51 1543.32 1674.21 1532.72C1705.04 1475.38 1694.89 1421.44 1663.56 1366.03C1664.32 1372 1666.87 1381.11 1662.98 1386.29C1662.39 1380.58 1661.8 1374.88 1660.04 1369.29C1653.92 1349.81 1637.08 1318.48 1612.98 1308.05C1599.9 1302.38 1588.45 1302.99 1574.47 1305.78Q1533.55 1317.57 1493.02 1330.1C1469.63 1337.36 1444.12 1347.86 1419.27 1351.12Q1417.62 1351.35 1415.95 1351.49Q1414.28 1351.63 1412.6 1351.68Q1410.92 1351.72 1409.24 1351.68Q1407.56 1351.63 1405.89 1351.5Q1404.22 1351.36 1402.57 1351.14Q1400.91 1350.91 1399.29 1350.59Q1397.66 1350.28 1396.07 1349.87Q1394.48 1349.47 1392.93 1348.98C1367.65 1340.9 1328.7 1301.89 1318.59 1282.48C1299.11 1245.07 1321.5 1215.76 1340.97 1181.82C1350.23 1165.7 1358.54 1149.31 1368.03 1133.25L1370.1 1131.86C1369.63 1116.53 1397.12 1079.43 1404.85 1062.31C1407.77 1055.79 1412.18 1049.33 1415.83 1043C1429.52 1019.3 1445.85 999.339 1482.53 993.853C1489.66 992.787 1504.29 992.39 1509.79 989.061C1510.37 988.711 1510.9 988.321 1511.46 987.952C1539.21 979.874 1570.11 975.282 1598.81 969.086C1604.93 967.766 1613.41 967.204 1618.74 964.887C1643.79 958.069 1680.48 957.314 1702.94 948.228Z"/>
	<path fill="#FA9A4E" d="M1522.03 1006.68L1525.88 1008.63L1526.61 1011.67C1520.64 1021.36 1456.73 1053.76 1442.83 1060.04C1439.72 1058.36 1438.99 1057.38 1437.74 1054.68C1438.06 1049.12 1442.28 1042.91 1445.92 1038.11C1462.53 1016.18 1492.27 1012.7 1522.03 1006.68Z"/>
	<path fill="#FA9A4E" d="M1645.35 1204.93Q1647.24 1204.76 1649.14 1204.72Q1651.04 1204.68 1652.94 1204.78Q1654.84 1204.87 1656.72 1205.1Q1658.6 1205.32 1660.44 1205.68C1684.01 1210.08 1711.37 1231.92 1723.37 1247.09C1725.74 1250.09 1727.39 1251.8 1726.32 1255.18C1720.01 1257.15 1678.25 1244.99 1664.7 1244.38C1638.14 1243.18 1609.55 1253.04 1584.82 1259.45C1567.46 1263.45 1550.75 1268.09 1533.02 1271.25C1525.39 1269.47 1515.72 1267.96 1509.01 1264.69C1504.66 1262.56 1504.11 1260.86 1503.19 1257.32C1509.85 1250.09 1628.83 1208.16 1645.35 1204.93Z"/>
	<path fill="#7C4647" d="M1477.33 1219.75C1477.18 1219.87 1477.07 1220.02 1476.89 1220.1C1462.68 1226.67 1411.41 1247.49 1397.12 1245.78C1391.26 1245.08 1386.41 1242.66 1383.23 1238.92C1377.1 1231.72 1377.23 1222.25 1379.47 1214.18C1384.2 1197.11 1395.52 1179.57 1403.86 1163.2C1414.58 1142.18 1424.14 1119.7 1437.71 1099.66C1441.95 1093.4 1447.12 1085.21 1455.28 1081.46C1456.01 1081.12 1456.77 1080.82 1457.5 1080.49C1479.2 1070.9 1504.92 1064.96 1529.41 1060.85C1521.14 1066.85 1515.09 1073.44 1509.62 1080.98C1499.96 1094.31 1448.53 1184.45 1447.54 1195.58C1447.14 1200.07 1449.93 1206.62 1451.5 1210.96C1460.15 1215.39 1466.73 1218.54 1477.33 1219.75Z"/>
	<path fill="#7C4647" d="M1574.47 1305.78C1584.97 1297.51 1645.66 1284.39 1662.75 1284C1696.19 1283.24 1727.87 1294.86 1751.59 1311.97C1776.99 1330.31 1819.67 1384.07 1832.55 1409.19C1841.18 1426.01 1847.66 1445.8 1848.01 1463.86C1848.17 1472.18 1843.83 1495.02 1846.92 1501.64L1850.18 1501.09L1819.12 1561.16C1813.82 1571.16 1804.4 1583.26 1802.09 1593.76C1795.62 1592.06 1789.96 1588.28 1783.25 1586.53C1763.71 1581.42 1745.58 1586.55 1728.1 1593.25C1719.11 1578.67 1713.85 1565.31 1692.31 1559C1679.98 1562.65 1673.78 1566.72 1666.61 1575.1Q1659.99 1569.24 1653.28 1563.45C1661.55 1553.83 1668.51 1543.32 1674.21 1532.72C1705.04 1475.38 1694.89 1421.44 1663.56 1366.03C1664.32 1372 1666.87 1381.11 1662.98 1386.29C1662.39 1380.58 1661.8 1374.88 1660.04 1369.29C1653.92 1349.81 1637.08 1318.48 1612.98 1308.05C1599.9 1302.38 1588.45 1302.99 1574.47 1305.78Z"/>
	<path fill="#C57252" d="M1692.31 1559C1713.85 1565.31 1719.11 1578.67 1728.1 1593.25C1745.58 1586.55 1763.71 1581.42 1783.25 1586.53C1789.96 1588.28 1795.62 1592.06 1802.09 1593.76C1809.1 1600.03 1812.88 1610.43 1816.81 1618.09C1818.45 1622.16 1818.68 1624.7 1822.92 1627.59C1835.62 1628.28 1854.81 1621.99 1865.38 1629.22C1871.77 1633.59 1872.06 1645.23 1871.27 1651.32C1871 1653.43 1870.33 1655.48 1869.66 1657.54C1876.86 1663.05 1886.06 1667.07 1893.87 1672.12C1905.09 1679.37 1914.6 1687.45 1924.86 1695.38C1933.31 1692.74 1944.44 1692.56 1951.38 1688.31L1952.24 1687.79C1951.65 1694.47 1955.87 1709.73 1952 1714.55L1950.27 1715.38C1957.5 1715.28 1964.76 1714.97 1971.94 1715.75C1989.37 1716.04 2009.34 1714.7 2026.44 1716.77Q2058.77 1717.25 2091.1 1717.12C2103.3 1717.1 2116.54 1716.31 2128.59 1717.48C2132.45 1717.86 2136.57 1718.72 2139.53 1720.73C2143.9 1723.71 2144.8 1728.78 2144.54 1732.97C2143.95 1742.57 2134.99 1750.23 2125.54 1756.04C2109.39 1765.96 2093.62 1767.21 2074.97 1772.44C2047.79 1806.57 2021.61 1841.09 1993.98 1875.04C1981.71 1890.12 1970.19 1907.78 1953.48 1920.33C1942.6 1928.51 1928.72 1933.87 1913.76 1936.45C1890.48 1940.46 1818.21 1937.73 1788.22 1937.74L1499.54 1938.31L1386.63 1938.7C1369.87 1938.77 1349.76 1940.43 1333.4 1938.33C1316.94 1938.78 1300.01 1939.86 1283.92 1936.63C1271.47 1934.13 1261.07 1929.27 1251.89 1922.57C1226.47 1904.03 1185.73 1847.64 1166.01 1822.2C1152.21 1805.97 1138.39 1789.12 1126.23 1772.19C1143.41 1774.27 1162.33 1773 1179.78 1772.98L1274.34 1772.85C1333.31 1774.11 1392.51 1773.47 1451.51 1773.45C1495.3 1773.43 1539.77 1774.52 1583.47 1772.76C1594.51 1770.71 1598.62 1771.16 1607.83 1765.4C1619.97 1757.81 1645.38 1736.34 1644.04 1723.84C1643.62 1719.94 1640.66 1719.09 1636.95 1716.85L1636.2 1715.88L1640.13 1715.08L1639.32 1714.25C1634.4 1714.09 1630.97 1714.55 1626.81 1712.5C1627.26 1710.59 1627.61 1708.65 1628.12 1706.74C1631.21 1695.1 1618.33 1680.53 1621.37 1671.85L1627.55 1671.17C1646.89 1665.28 1661.65 1651.8 1676.18 1640.93C1660.81 1623.13 1664.7 1607.48 1666.55 1587.65C1666.93 1583.51 1667.7 1579.19 1666.61 1575.1C1673.78 1566.72 1679.98 1562.65 1692.31 1559Z"/>
	<path fill="#FEBD64" d="M1971.94 1715.75C1989.37 1716.04 2009.34 1714.7 2026.44 1716.77Q2058.77 1717.25 2091.1 1717.12C2103.3 1717.1 2116.54 1716.31 2128.59 1717.48C2132.45 1717.86 2136.57 1718.72 2139.53 1720.73C2143.9 1723.71 2144.8 1728.78 2144.54 1732.97C2143.95 1742.57 2134.99 1750.23 2125.54 1756.04C2109.39 1765.96 2093.62 1767.21 2074.97 1772.44C2055.9 1773.6 2036.08 1772.89 2016.92 1772.94L1910.4 1773.04L1583.47 1772.76C1594.51 1770.71 1598.62 1771.16 1607.83 1765.4C1619.97 1757.81 1645.38 1736.34 1644.04 1723.84C1643.62 1719.94 1640.66 1719.09 1636.95 1716.85L1848.6 1716.64C1889.09 1716.73 1931.8 1718.96 1971.94 1715.75Z"/>
	<path fill="#6B9D3F" d="M1692.31 1559C1713.85 1565.31 1719.11 1578.67 1728.1 1593.25C1745.58 1586.55 1763.71 1581.42 1783.25 1586.53C1789.96 1588.28 1795.62 1592.06 1802.09 1593.76C1809.1 1600.03 1812.88 1610.43 1816.81 1618.09C1818.45 1622.16 1818.68 1624.7 1822.92 1627.59C1835.62 1628.28 1854.81 1621.99 1865.38 1629.22C1871.77 1633.59 1872.06 1645.23 1871.27 1651.32C1871 1653.43 1870.33 1655.48 1869.66 1657.54C1876.86 1663.05 1886.06 1667.07 1893.87 1672.12C1905.09 1679.37 1914.6 1687.45 1924.86 1695.38C1933.31 1692.74 1944.44 1692.56 1951.38 1688.31L1952.24 1687.79C1951.65 1694.47 1955.87 1709.73 1952 1714.55L1950.27 1715.38C1957.5 1715.28 1964.76 1714.97 1971.94 1715.75C1931.8 1718.96 1889.09 1716.73 1848.6 1716.64L1636.95 1716.85L1636.2 1715.88L1640.13 1715.08L1639.32 1714.25C1634.4 1714.09 1630.97 1714.55 1626.81 1712.5C1627.26 1710.59 1627.61 1708.65 1628.12 1706.74C1631.21 1695.1 1618.33 1680.53 1621.37 1671.85L1627.55 1671.17C1646.89 1665.28 1661.65 1651.8 1676.18 1640.93C1660.81 1623.13 1664.7 1607.48 1666.55 1587.65C1666.93 1583.51 1667.7 1579.19 1666.61 1575.1C1673.78 1566.72 1679.98 1562.65 1692.31 1559Z"/>
	<path fill="#4F8E4F" d="M1816.81 1618.09C1818.45 1622.16 1818.68 1624.7 1822.92 1627.59C1835.62 1628.28 1854.81 1621.99 1865.38 1629.22C1871.77 1633.59 1872.06 1645.23 1871.27 1651.32C1871 1653.43 1870.33 1655.48 1869.66 1657.54C1869.29 1657.74 1868.95 1657.98 1868.55 1658.14C1866.42 1659 1865.13 1658.87 1862.8 1658.95C1853.51 1659.28 1842.85 1662.01 1836.77 1667.55C1829.94 1673.78 1825.77 1682.17 1823.86 1690.02C1822.26 1678.92 1809.21 1667.97 1805.74 1656.46C1802.67 1646.27 1806.35 1639.72 1813.71 1631.28C1817.21 1627.26 1817.07 1624.65 1816.9 1619.81C1816.88 1619.24 1816.84 1618.67 1816.81 1618.09Z"/>
	<path fill="#3E7E55" d="M1725.14 1671.04C1725.09 1658.41 1724.05 1641.85 1737.07 1632.19C1740.06 1629.97 1743.9 1628.39 1748.22 1628.35C1757.83 1628.25 1766.23 1634.89 1771.81 1639.99C1782.59 1649.83 1797.61 1665.69 1796.16 1678.97C1794.76 1691.82 1779.88 1696.79 1774.39 1707.01C1769.28 1702.85 1762.8 1689.61 1756.38 1683.3C1748.77 1675.82 1737.2 1672.35 1725.14 1671.04Z"/>
	<path fill="#2C6C58" d="M1869.66 1657.54C1876.86 1663.05 1886.06 1667.07 1893.87 1672.12C1905.09 1679.37 1914.6 1687.45 1924.86 1695.38C1933.31 1692.74 1944.44 1692.56 1951.38 1688.31L1952.24 1687.79C1951.65 1694.47 1955.87 1709.73 1952 1714.55L1950.27 1715.38C1906.56 1714.91 1862.74 1715.46 1819.03 1715.51Q1821.06 1702.72 1823.86 1690.02C1825.77 1682.17 1829.94 1673.78 1836.77 1667.55C1842.85 1662.01 1853.51 1659.28 1862.8 1658.95C1865.13 1658.87 1866.42 1659 1868.55 1658.14C1868.95 1657.98 1869.29 1657.74 1869.66 1657.54Z"/>
	<path fill="#2C6C58" d="M1676.18 1640.93C1684.15 1643.35 1692.57 1643.24 1701.04 1643.48C1700.01 1650.01 1694.25 1669.19 1698.25 1674.3L1699.73 1675.01C1708.26 1672.78 1716.22 1671.78 1725.14 1671.04C1737.2 1672.35 1748.77 1675.82 1756.38 1683.3C1762.8 1689.61 1769.28 1702.85 1774.39 1707.01C1775.77 1710.05 1777.35 1711.7 1776.14 1714.87C1752.19 1717.68 1723.99 1715.52 1699.59 1715.46C1680.23 1715.41 1659.24 1716.65 1640.13 1715.08L1639.32 1714.25C1634.4 1714.09 1630.97 1714.55 1626.81 1712.5C1627.26 1710.59 1627.61 1708.65 1628.12 1706.74C1631.21 1695.1 1618.33 1680.53 1621.37 1671.85L1627.55 1671.17C1646.89 1665.28 1661.65 1651.8 1676.18 1640.93Z"/>
	<path fill="#3E7E55" d="M1676.18 1640.93C1684.15 1643.35 1692.57 1643.24 1701.04 1643.48C1700.01 1650.01 1694.25 1669.19 1698.25 1674.3L1699.73 1675.01C1699.26 1675.17 1698.8 1675.34 1698.33 1675.48C1695.65 1676.24 1696.52 1675.97 1693.54 1676.26C1679.87 1677.59 1660.08 1685.98 1651.88 1694.14C1647.48 1698.53 1640.21 1708.7 1639.32 1714.25C1634.4 1714.09 1630.97 1714.55 1626.81 1712.5C1627.26 1710.59 1627.61 1708.65 1628.12 1706.74C1631.21 1695.1 1618.33 1680.53 1621.37 1671.85L1627.55 1671.17C1646.89 1665.28 1661.65 1651.8 1676.18 1640.93Z"/>
	<path fill="#FA9A4E" d="M1166.01 1822.2L1167.83 1819.61C1182.32 1816.35 1260.38 1819.41 1283.33 1818.61C1376.95 1818.48 1470.74 1817.58 1564.34 1818.72C1642.28 1818.9 1720.93 1816.54 1798.78 1819.2C1802.34 1824.26 1805.81 1829.05 1808.04 1834.55C1796.7 1855.92 1744.64 1923.99 1717.64 1932.52C1698.59 1938.53 1637.12 1935.73 1612.35 1935.76L1347.5 1936.46C1343.39 1936.48 1336.01 1935.61 1333.4 1938.33C1316.94 1938.78 1300.01 1939.86 1283.92 1936.63C1271.47 1934.13 1261.07 1929.27 1251.89 1922.57C1226.47 1904.03 1185.73 1847.64 1166.01 1822.2Z"/>
	<path fill="#FEBD64" d="M1283.33 1818.61C1376.95 1818.48 1470.74 1817.58 1564.34 1818.72C1548.8 1836.39 1521.96 1879.52 1499.65 1889.62C1493.76 1892.29 1486.93 1893.65 1480.17 1894.39C1460.61 1896.51 1376.46 1896.51 1359.05 1892.82C1327.81 1886.21 1299.47 1839.52 1283.33 1818.61Z"/>
	<path fill="#2C6C58" d="M1268.53 597.911C1270.3 611.158 1271.9 624.827 1271.97 638.148L1272.1 640.223C1273.83 670.29 1248.53 701.036 1284.72 726.083C1292.99 731.808 1307.31 737.206 1314.06 742.288L1310.49 743.121C1305.43 751.479 1301.16 762.96 1289.95 767.701C1299.2 771.547 1308.27 774.662 1318.39 776.961C1331.67 779.978 1404.49 791.088 1413.87 789.092C1414.32 788.995 1414.74 788.809 1415.18 788.668C1417.65 782.445 1421.48 778.176 1427.61 773.617C1426.16 768.614 1423.18 764.322 1422.35 759.039C1418.25 733.001 1438.88 715.95 1458.96 697.187C1463.36 702.42 1467.3 707.877 1472.12 712.907C1498.39 740.314 1523.64 742.913 1566.1 742.889L1620.73 742.682C1630.45 742.62 1642.08 741.597 1651.62 742.909C1652.39 743.016 1653.17 743.141 1653.94 743.257C1657.79 750.502 1662.62 758.233 1672.81 761.489C1673.59 761.739 1674.39 761.96 1675.18 762.196C1686.28 764.6 1698.47 767.985 1709.6 763.735C1720.13 759.71 1723.69 750.685 1726.94 742.845L1848.7 742.918C1860.51 742.798 1873 743.058 1884.63 741.457C1883.81 742.395 1882.57 743.192 1882.16 744.272C1880.71 748.107 1884.96 757.263 1885.66 761.586C1887.2 771.064 1885.47 781.904 1887.86 790.985C1888.3 792.648 1888.59 792.942 1889.44 794.279L1893.32 794.947L1887.85 795.975C1871.91 817.055 1864.56 843.003 1828.58 850.276C1803.44 855.358 1773.69 854.372 1747.85 853.255L1745.47 854.928C1719.4 871.777 1701.76 890.461 1699.3 916.947C1698.32 927.53 1700.04 937.887 1702.94 948.228C1680.48 957.314 1643.79 958.069 1618.74 964.887C1613.41 967.204 1604.93 967.766 1598.81 969.086C1570.11 975.282 1539.21 979.874 1511.46 987.952C1510.9 988.321 1510.37 988.711 1509.79 989.061C1504.29 992.39 1489.66 992.787 1482.53 993.853C1445.85 999.339 1429.52 1019.3 1415.83 1043C1412.18 1049.33 1407.77 1055.79 1404.85 1062.31C1397.12 1079.43 1369.63 1116.53 1370.1 1131.86L1368.03 1133.25C1368.06 1132.28 1367.51 1130.85 1367.27 1129.88C1351.91 1120.39 1295.29 1106.94 1274.97 1103.93L1273.72 1104.36C1248.32 1112.94 1230.14 1130.15 1208.44 1138.22C1187.39 1146.04 1153.14 1133.98 1131.96 1129.14C1124.25 1141.38 1111.68 1156.32 1094.6 1161.92C1087.03 1164.4 908.359 1164.88 886.554 1164.11C879.791 1163.87 871.195 1163.72 865.12 1161.42C845.528 1154 835.255 1137.56 829.746 1122.53C824.818 1109.01 819.468 1095.77 822.006 1081.58C825.697 1060.94 843.776 1048.35 864.628 1036.53C868.807 1030.27 874.613 1018.67 884.705 1016.77C890.489 1015.68 895.197 1017.97 899.69 1020.27C909.182 1016.73 918.792 1014 928.785 1011.35Q908.948 991.891 888.205 972.97C876.371 969.344 865.39 963.756 859.499 954.867C846.844 935.773 866.161 923.666 872.847 906.957C872.996 906.584 873.127 906.207 873.267 905.832Q879.835 886.844 889.462 868.605C891.585 844.127 911.042 819.555 932.488 801.616C935.954 794.941 935.481 790.168 942.793 784.554C946.193 781.944 950.334 779.778 955.433 780.011C963.196 780.367 970.014 784.934 975.082 788.957C991.203 778.797 1010.43 776.187 1030.71 774.606C1057.29 771.265 1094.9 771.316 1120.11 779.624C1129.22 782.624 1141.44 790.738 1151.08 790.925C1145.52 765.515 1135.99 741.318 1140.6 715.18C1146.67 680.723 1179.94 658.324 1214.76 638.113C1220.76 627.802 1216.18 614.85 1226.07 605.281C1238.21 593.545 1252.13 600.73 1267.16 598.238C1267.63 598.16 1268.07 598.02 1268.53 597.911ZM1618.23 853.826C1607.02 852.912 1590.06 852.327 1579.25 854.094C1555.45 855.776 1510.25 855.477 1485.86 853.09C1485.86 853.61 1485.83 854.131 1485.85 854.651C1485.99 861.974 1492.82 872.195 1495.73 879.379C1506.57 906.184 1506.9 939.43 1480.74 961.732C1466.47 973.894 1448.21 977.934 1427.32 978.626C1384.89 980.032 1342.21 977.726 1299.69 978.873C1283.74 999.816 1268.08 1019.67 1234.48 1026.05C1225.05 1027.85 1215.37 1026.43 1206.2 1029.23C1217.26 1035.99 1229.14 1043.23 1242.87 1046.58C1266.7 1052.41 1309.41 1053.38 1335.69 1055.75C1358.43 1057.8 1382.04 1061.52 1404.85 1062.31C1407.77 1055.79 1412.18 1049.33 1415.83 1043C1429.52 1019.3 1445.85 999.339 1482.53 993.853C1489.66 992.787 1504.29 992.39 1509.79 989.061C1510.37 988.711 1510.9 988.321 1511.46 987.952C1539.21 979.874 1570.11 975.282 1598.81 969.086C1604.93 967.766 1613.41 967.204 1618.74 964.887C1643.79 958.069 1680.48 957.314 1702.94 948.228C1700.04 937.887 1698.32 927.53 1699.3 916.947C1701.76 890.461 1719.4 871.777 1745.47 854.928C1736.16 850.737 1635.39 853.145 1618.23 853.826ZM1136.95 1093L1138.47 1097.19C1149.74 1103.18 1171.69 1103.8 1185.31 1105.35C1192.52 1097.99 1198.19 1090.08 1203.94 1082.06C1187.61 1063.07 1170.38 1045.27 1151.58 1027.61C1135.52 1026.45 1084.13 1024.33 1070.84 1029.05L1070.29 1030.14C1098.57 1042.04 1123.9 1050.01 1133.34 1076.04C1135.28 1081.4 1136.64 1087.46 1136.95 1093Z"/>
	<path fill="#4F8E4F" d="M873.267 905.832C880.577 904.842 885.508 904.559 891.917 907.712C903.72 913.517 908.371 925.466 910.521 935.358C912.725 945.496 913.079 957.343 904.631 966.036C899.538 971.278 896.03 971.665 888.205 972.97C876.371 969.344 865.39 963.756 859.499 954.867C846.844 935.773 866.161 923.666 872.847 906.957C872.996 906.584 873.127 906.207 873.267 905.832Z"/>
	<path fill="#1D494E" d="M1059.62 1078.13C1060.24 1078.08 1060.86 1078.01 1061.48 1077.97C1068.5 1077.56 1074.17 1078.65 1079.4 1082.27C1086.34 1087.08 1088.61 1094.38 1088.5 1101.24C1088.3 1113.25 1080.83 1130.78 1068.98 1139C1063.85 1142.55 1059.34 1143.01 1052.58 1142.81C1041.59 1139.5 1030.71 1134.49 1024.55 1126.66Q1024.11 1126.09 1023.71 1125.51Q1023.31 1124.93 1022.95 1124.34Q1022.59 1123.74 1022.28 1123.13Q1021.96 1122.52 1021.68 1121.9Q1021.41 1121.28 1021.17 1120.65Q1020.94 1120.02 1020.75 1119.38Q1020.56 1118.74 1020.42 1118.1Q1020.27 1117.45 1020.17 1116.8Q1020.07 1116.15 1020.01 1115.5Q1019.96 1114.85 1019.94 1114.19Q1019.93 1113.54 1019.96 1112.88Q1020 1112.23 1020.07 1111.58Q1020.15 1110.93 1020.27 1110.28Q1020.4 1109.63 1020.56 1108.99Q1020.73 1108.35 1020.94 1107.71Q1021.15 1107.08 1021.4 1106.45C1026.77 1092.7 1044.03 1084.79 1059.62 1078.13Z"/>
	<path fill="#1D494E" d="M1427.61 773.617C1435.65 767.837 1442.27 763.086 1452.57 759.652C1469.12 764.921 1491.06 775.495 1498.43 788.195C1501.49 793.463 1501.85 799.258 1499 804.628C1494.56 812.997 1483.41 819.265 1472.49 822.398C1461.89 825.434 1450.99 825.307 1440.77 821.51C1428.67 817.021 1419.48 807.617 1415.92 797.901C1414.87 795.045 1415.11 792.018 1415.19 789.087C1415.19 788.948 1415.18 788.808 1415.18 788.668C1417.65 782.445 1421.48 778.176 1427.61 773.617Z"/>
	<path fill="#1D494E" d="M1726.94 742.845L1848.7 742.918C1847.43 758.759 1835.59 788.603 1819.79 799.594C1810.73 805.891 1799.45 807.67 1787.41 807.147C1769.05 806.349 1719.42 799.163 1702.95 793.619C1697.9 791.917 1693.67 789.479 1690 786.377C1683.19 780.633 1674.37 770.206 1675.18 762.196C1686.28 764.6 1698.47 767.985 1709.6 763.735C1720.13 759.71 1723.69 750.685 1726.94 742.845Z"/>
	<path fill="#6B9D3F" d="M1268.53 597.911C1270.3 611.158 1271.9 624.827 1271.97 638.148L1272.1 640.223C1273.83 670.29 1248.53 701.036 1284.72 726.083C1292.99 731.808 1307.31 737.206 1314.06 742.288L1310.49 743.121C1305.43 751.479 1301.16 762.96 1289.95 767.701C1279.72 775.837 1271.24 782.02 1257.25 786.453C1235.88 781.753 1213.99 762.964 1203.53 748.595C1196.86 739.444 1194.52 729.089 1198.63 718.991C1203.13 707.922 1212.22 702.422 1225.36 697.456C1206.81 675.535 1210.34 662.146 1214.76 638.113C1220.76 627.802 1216.18 614.85 1226.07 605.281C1238.21 593.545 1252.13 600.73 1267.16 598.238C1267.63 598.16 1268.07 598.02 1268.53 597.911Z"/>
	<path fill="#7C4647" d="M1151.58 1027.61C1161.58 1027.68 1199.07 1026.1 1205.98 1028.91L1206.2 1029.23C1217.26 1035.99 1229.14 1043.23 1242.87 1046.58C1266.7 1052.41 1309.41 1053.38 1335.69 1055.75C1358.43 1057.8 1382.04 1061.52 1404.85 1062.31C1397.12 1079.43 1369.63 1116.53 1370.1 1131.86L1368.03 1133.25C1368.06 1132.28 1367.51 1130.85 1367.27 1129.88C1351.91 1120.39 1295.29 1106.94 1274.97 1103.93L1273.72 1104.36C1248.32 1112.94 1230.14 1130.15 1208.44 1138.22C1187.39 1146.04 1153.14 1133.98 1131.96 1129.14C1129.86 1118.54 1134.94 1103.76 1136.95 1093L1138.47 1097.19C1149.74 1103.18 1171.69 1103.8 1185.31 1105.35C1192.52 1097.99 1198.19 1090.08 1203.94 1082.06C1187.61 1063.07 1170.38 1045.27 1151.58 1027.61Z"/>
	<path fill="#4F8E4F" d="M928.785 1011.35C937.87 1006.33 955.712 1003.32 966.743 1004.34C976.619 1005.25 984.996 1010.13 990.833 1015.95C1000.8 1025.87 1003.45 1039.23 1000.75 1051.29C996.941 1068.35 980.861 1093.22 961.732 1103.47C955.993 1106.55 946.599 1108.71 941.837 1112.4C933.572 1118.81 930.908 1141.87 915.023 1140.51C902.534 1139.45 891.871 1126.74 885.262 1119.6C869.233 1121.72 844.537 1128.5 829.746 1122.53C824.818 1109.01 819.468 1095.77 822.006 1081.58C825.697 1060.94 843.776 1048.35 864.628 1036.53C868.807 1030.27 874.613 1018.67 884.705 1016.77C890.489 1015.68 895.197 1017.97 899.69 1020.27C909.182 1016.73 918.792 1014 928.785 1011.35Z"/>
	<path fill="#94B543" d="M864.628 1036.53C868.807 1030.27 874.613 1018.67 884.705 1016.77C890.489 1015.68 895.197 1017.97 899.69 1020.27C910.357 1030.19 921.093 1044.69 919.562 1057.76C918.538 1066.48 911.719 1074.77 902.498 1080.04C897.58 1082.84 890.763 1085.27 884.402 1084.57C878.458 1083.91 873.891 1081.46 870.588 1077.77C860.17 1066.12 865.166 1049.72 864.628 1036.53Z"/>
	<path fill="#1D494E" d="M1232.33 853.589C1273.65 855.346 1315.43 854.2 1356.82 854.071C1399.71 853.936 1443.04 854.688 1485.86 853.09C1485.86 853.61 1485.83 854.131 1485.85 854.651C1485.99 861.974 1492.82 872.195 1495.73 879.379C1506.57 906.184 1506.9 939.43 1480.74 961.732C1466.47 973.894 1448.21 977.934 1427.32 978.626C1384.89 980.032 1342.21 977.726 1299.69 978.873C1299.74 978.731 1299.79 978.589 1299.85 978.448C1306.61 961.402 1307.81 941.982 1303.79 924.446C1295.97 890.302 1268.36 872.413 1232.33 853.589Z"/>
	<path fill="#2C6C58" d="M1361.72 868.398C1368.08 869.601 1373.44 871.941 1377.69 875.694Q1378.6 876.497 1379.45 877.334Q1380.31 878.171 1381.1 879.04Q1381.9 879.909 1382.64 880.807Q1383.37 881.705 1384.04 882.631Q1384.72 883.556 1385.33 884.507Q1385.93 885.457 1386.48 886.429Q1387.02 887.402 1387.49 888.394Q1387.97 889.386 1388.38 890.395Q1388.78 891.404 1389.12 892.427Q1389.46 893.451 1389.72 894.486Q1389.99 895.521 1390.18 896.565Q1390.38 897.609 1390.5 898.659Q1390.62 899.709 1390.67 900.762Q1390.73 901.816 1390.7 902.87Q1390.68 903.924 1390.59 904.975Q1390.5 906.027 1390.33 907.074C1389.25 914.202 1385.72 921.494 1377.83 925.947C1372.1 929.184 1367.38 929.042 1360.6 928.502C1347.7 922.507 1334.27 912.623 1329.48 901.627C1326.91 895.723 1327.12 889.183 1331.01 883.631C1337.57 874.268 1349.18 871.369 1361.72 868.398Z"/>
	<path fill="#7C4647" d="M1579.25 854.094C1590.06 852.327 1607.02 852.912 1618.23 853.826C1618.29 854.233 1618.35 854.642 1618.42 855.049C1625.58 895.934 1648.64 899.539 1625.16 945.199C1622.41 950.546 1613.72 959.572 1618.74 964.887C1613.41 967.204 1604.93 967.766 1598.81 969.086C1570.11 975.282 1539.21 979.874 1511.46 987.952C1532.6 964.188 1558.31 938.049 1575.89 912.99C1588.12 895.561 1587.09 872.582 1579.25 854.094Z"/>
	<path fill="#4F8E4F" d="M1030.71 774.606C1057.29 771.265 1094.9 771.316 1120.11 779.624C1129.22 782.624 1141.44 790.738 1151.08 790.925C1163.76 805.445 1174.25 816.482 1169.51 834.839C1167.27 843.506 1162.15 851.37 1156.21 858.92C1184.86 869.782 1189.22 880.306 1198.67 902.021C1206.14 919.155 1211.56 936.647 1199.46 953.57C1191.84 964.213 1177.53 973.368 1162.03 976.826C1152.52 978.947 1143.26 978.485 1134.6 974.709C1117.39 967.207 1105.18 949.253 1100.84 935C1099.71 931.299 1099.23 927.478 1098.75 923.707C1088.55 928.97 1063.77 933.328 1057.62 938.752C1057.55 946.457 1058.23 955.589 1050.66 961.634Q1050.12 962.068 1049.53 962.457Q1048.93 962.846 1048.28 963.185Q1047.64 963.524 1046.94 963.808Q1046.25 964.093 1045.52 964.32Q1044.79 964.548 1044.04 964.715Q1043.28 964.883 1042.5 964.989Q1041.72 965.094 1040.94 965.137Q1040.15 965.18 1039.36 965.159C1028.02 964.926 1014.36 955.768 1007.21 949.704C992.14 950.97 980.174 950.345 967.239 943.818C948.989 934.608 894.9 890.955 891.271 875.582C890.72 873.248 890.065 870.931 889.462 868.605C891.585 844.127 911.042 819.555 932.488 801.616C935.954 794.941 935.481 790.168 942.793 784.554C946.193 781.944 950.334 779.778 955.433 780.011C963.196 780.367 970.014 784.934 975.082 788.957C991.203 778.797 1010.43 776.187 1030.71 774.606Z"/>
	<path fill="#6B9D3F" d="M1007.21 949.704C1003.44 945.579 1000.99 941.221 1001.77 936.128C1002.84 929.153 1010.26 923.016 1017.48 919.031C1024.53 915.135 1035.13 911.266 1044.16 912.729C1048.63 913.454 1052.08 915.419 1054.54 918.278C1059.41 923.941 1059.55 932.408 1057.62 938.752C1057.55 946.457 1058.23 955.589 1050.66 961.634Q1050.12 962.068 1049.53 962.457Q1048.93 962.846 1048.28 963.185Q1047.64 963.524 1046.94 963.808Q1046.25 964.093 1045.52 964.32Q1044.79 964.548 1044.04 964.715Q1043.28 964.883 1042.5 964.989Q1041.72 965.094 1040.94 965.137Q1040.15 965.18 1039.36 965.159C1028.02 964.926 1014.36 955.768 1007.21 949.704Z"/>
	<path fill="#94B543" d="M975.082 788.957C991.203 778.797 1010.43 776.187 1030.71 774.606C1040.43 775.163 1049.97 775.238 1059.72 775.118C1080.53 793.104 1096.79 827.901 1094.14 851.936C1092.88 863.341 1087.18 874.319 1075.09 881.675C1066.18 887.097 1049.02 892.789 1037.3 891.483C1009.93 888.431 994.035 859.042 973.591 848.938C969.219 851.295 964.79 853.473 959.299 853.954C954.428 854.381 949.692 853.438 945.968 850.988C930.78 840.998 933.18 815.63 932.488 801.616C935.954 794.941 935.481 790.168 942.793 784.554C946.193 781.944 950.334 779.778 955.433 780.011C963.196 780.367 970.014 784.934 975.082 788.957Z"/>
	<path fill="#C3D052" d="M932.488 801.616C935.954 794.941 935.481 790.168 942.793 784.554C946.193 781.944 950.334 779.778 955.433 780.011C963.196 780.367 970.014 784.934 975.082 788.957C986.753 794.293 999.783 802.946 1003.13 813.35C1005.27 820.01 1002.06 825.847 997.316 831.416C990.642 839.255 981.395 842.589 973.591 848.938C969.219 851.295 964.79 853.473 959.299 853.954C954.428 854.381 949.692 853.438 945.968 850.988C930.78 840.998 933.18 815.63 932.488 801.616Z"/>
</svg>